<svg xmlns="http://www.w3.org/2000/svg" viewBox="0 0 512 512">
  <defs>
    <linearGradient id="sky" x1="0" y1="0" x2="0" y2="1">
      <stop offset="0" stop-color="#2a4e8c"/><stop offset="1" stop-color="#ff9a5c"/>
    </linearGradient>
    <linearGradient id="sea" x1="0" y1="0" x2="0" y2="1">
      <stop offset="0" stop-color="#1f6e96"/><stop offset="1" stop-color="#062033"/>
    </linearGradient>
    <linearGradient id="tai" x1="0" y1="0" x2="0" y2="1">
      <stop offset="0" stop-color="#c24a58"/><stop offset=".5" stop-color="#e98088"/><stop offset="1" stop-color="#fde8e4"/>
    </linearGradient>
  </defs>
  <rect width="512" height="512" fill="url(#sky)"/>
  <circle cx="370" cy="250" r="62" fill="#ffe2a8"/>
  <path d="M170 262 Q230 214 290 240 Q330 222 380 262 Z" fill="#6b5a7a" opacity=".8"/>
  <rect y="258" width="512" height="254" fill="url(#sea)"/>
  <path d="M0 262 Q64 252 128 262 T256 262 T384 262 T512 262" stroke="#bfe6f5" stroke-width="5" fill="none" opacity=".7"/>
  <!-- 竿と糸 -->
  <path d="M40 470 Q150 250 330 72" stroke="#222" stroke-width="11" fill="none" stroke-linecap="round"/>
  <path d="M330 72 Q372 160 404 276" stroke="#f4f8ff" stroke-width="4" fill="none"/>
  <!-- 跳ねるマダイ -->
  <g transform="translate(300 330) rotate(-28)">
    <path d="M-120 0 L-168 -44 Q-150 0 -168 44 Z" fill="#e98a8a"/>
    <path d="M-60 -52 Q0 -100 60 -50 Z" fill="#e98a8a"/>
    <path d="M118 4 C100 -62 -40 -74 -120 -12 L-120 12 C-40 70 96 60 118 4 Z" fill="url(#tai)"/>
    <circle cx="-20" cy="-26" r="4" fill="#6fd6ff"/><circle cx="20" cy="-34" r="4" fill="#6fd6ff"/><circle cx="50" cy="-20" r="4" fill="#6fd6ff"/><circle cx="-50" cy="-14" r="4" fill="#6fd6ff"/>
    <circle cx="80" cy="-10" r="11" fill="#fff"/><circle cx="82" cy="-10" r="7" fill="#111"/>
  </g>
  <g fill="#fff" opacity=".85">
    <circle cx="190" cy="262" r="7"/><circle cx="215" cy="240" r="5"/><circle cx="420" cy="258" r="6"/><circle cx="445" cy="236" r="4"/>
  </g>
</svg>
